<?xml version="1.0" encoding="utf-8"?>
<!-- Generator: Adobe Illustrator 22.1.0, SVG Export Plug-In . SVG Version: 6.00 Build 0)  -->
<svg version="1.1" id="Layer_1" xmlns="http://www.w3.org/2000/svg" xmlns:xlink="http://www.w3.org/1999/xlink" x="0px" y="0px"
	 viewBox="0 0 439.4 110.8" style="enable-background:new 0 0 439.4 110.8;" xml:space="preserve">
<style type="text/css">
	.st0{fill:#86BFC3;}
	.st1{fill:#373D2C;}
</style>
<path class="st0" d="M17.6,64.8c4.8,2.7,10.3,4.3,16.2,4.3c18.1,0,32.8-14.7,32.8-32.8c0-5.9-1.6-11.4-4.3-16.2H42.6v25h-25V64.8z
	 M25,4.6C14,7.7,5.3,16.4,2.2,27.4H25V4.6z"/>
<path class="st1" d="M229.6,103.2c-0.3,0.5-0.8,0.9-1.4,1.1c-0.6,0.3-1.2,0.4-1.9,0.4c-1,0-1.9-0.4-2.5-1.1s-0.9-2-0.9-3.8v-0.1
	v-0.1h7.3c0-0.2,0.1-0.5,0.1-0.8s0-0.5,0-0.8c0-1.3-0.4-2.3-1.2-3.1c-0.8-0.7-1.9-1.1-3.4-1.1c-1.8,0-3.2,0.6-4.2,1.7
	s-1.6,2.7-1.6,4.8c0,0.9,0.1,1.7,0.3,2.5c0.2,0.8,0.6,1.4,1,2c0.4,0.5,1,1,1.7,1.3s1.5,0.5,2.4,0.5c1.2,0,2.3-0.3,3.1-0.8
	c0.8-0.5,1.4-1.2,1.7-2.1L229.6,103.2z M227.2,96.1c0.4,0.5,0.6,1.1,0.6,1.9c0,0.1,0,0.2,0,0.3c0,0.1,0,0.2,0,0.2h-4.7
	c0.1-1.1,0.4-1.9,0.8-2.4s1-0.7,1.7-0.7C226.2,95.3,226.8,95.6,227.2,96.1 M213.8,104.9c-0.2,0-0.3-0.1-0.4-0.2s-0.1-0.3-0.1-0.4
	v-6.8c0.4-0.4,0.8-0.7,1.3-0.8c0.5-0.2,0.9-0.3,1.3-0.3c0.2,0,0.4,0,0.5,0.1s0.2,0.3,0.3,0.5l0.3,1.5h1.3c0.1-0.7,0.2-1.4,0.3-2.2
	c0-0.8,0-1.5,0-2.1c-0.2-0.1-0.4-0.2-0.7-0.2c-0.3-0.1-0.6-0.1-0.8-0.1c-0.7,0-1.5,0.2-2.1,0.7c-0.7,0.5-1.3,1-1.7,1.7l-0.3-2
	l-0.4-0.4c-0.6,0-1.2,0.1-1.9,0.2c-0.7,0.1-1.3,0.2-1.9,0.4v1.2l1.4,0.2c0.2,0,0.3,0.1,0.4,0.2s0.1,0.3,0.1,0.5v7.6
	c0,0.2,0,0.3-0.1,0.4s-0.2,0.2-0.4,0.2l-1.3,0.2v1.2h7.2V105L213.8,104.9z M206.1,106.4c0.4-0.1,0.8-0.2,1-0.3V105l-1.2-0.1
	c-0.2,0-0.3-0.1-0.4-0.2s-0.2-0.3-0.2-0.5v-5.8c0-1.5-0.4-2.6-1.1-3.3c-0.7-0.7-1.8-1.1-3.4-1.1c-1.2,0-2.3,0.2-3.2,0.7
	c-0.9,0.5-1.5,1.1-1.8,2l0.7,0.6c0.5-0.5,1-0.8,1.6-1s1.2-0.3,1.9-0.3c0.8,0,1.5,0.2,1.9,0.6s0.6,1.1,0.6,2.1v1.4l-2.3,0.2
	c-0.6,0-1.1,0.1-1.7,0.3c-0.6,0.1-1.1,0.3-1.5,0.6c-0.4,0.3-0.8,0.6-1.1,1c-0.3,0.4-0.4,0.9-0.4,1.5c0,0.9,0.3,1.6,1,2.2
	c0.6,0.5,1.5,0.8,2.5,0.8c0.7,0,1.4-0.1,2.1-0.4c0.6-0.3,1.2-0.7,1.6-1.1c0.2,0.5,0.4,0.9,0.8,1.1s0.8,0.4,1.4,0.4
	C205.3,106.6,205.7,106.5,206.1,106.4 M198.9,104.5c-0.3-0.3-0.4-0.6-0.4-1.1c0-0.6,0.2-1,0.6-1.4c0.4-0.3,1-0.5,1.8-0.6l1.7-0.1
	v2.8c-0.3,0.3-0.7,0.5-1.2,0.6c-0.4,0.2-0.9,0.2-1.3,0.2C199.6,104.9,199.2,104.8,198.9,104.5 M184.1,102.9c0.2,0.8,0.6,1.4,1,2
	c0.4,0.5,1,1,1.7,1.3s1.5,0.5,2.4,0.5c1.1,0,2.1-0.2,2.9-0.7s1.3-1,1.6-1.8l-0.7-0.6c-0.3,0.3-0.7,0.6-1.2,0.8
	c-0.5,0.2-1.1,0.4-1.7,0.4c-1.1,0-1.9-0.4-2.4-1.2c-0.6-0.8-0.8-2-0.8-3.6s0.2-2.8,0.7-3.5s1.2-1.1,2-1.1c0.3,0,0.6,0,0.8,0.1
	c0.3,0.1,0.5,0.2,0.6,0.3c0.1,0.1,0.2,0.2,0.3,0.4c0.1,0.1,0.1,0.3,0.2,0.5l0.5,1.9h1.4c0.1-0.6,0.2-1.2,0.2-1.9c0-0.7,0-1.3,0-1.9
	c-0.4-0.2-1-0.4-1.7-0.6s-1.4-0.2-2.1-0.2c-0.9,0-1.8,0.2-2.5,0.5s-1.4,0.7-1.9,1.3c-0.5,0.6-0.9,1.2-1.2,2
	c-0.3,0.8-0.4,1.7-0.4,2.7C183.7,101.4,183.8,102.2,184.1,102.9 M173.7,87.3c-0.3,0-0.7,0-1.1,0.1c-0.4,0-0.8,0.1-1.2,0.1
	c-0.4,0.1-0.8,0.1-1.2,0.2c-0.4,0.1-0.7,0.2-1.1,0.3v1.1l1.5,0.2c0.2,0,0.3,0.1,0.4,0.2s0.1,0.2,0.1,0.4v14.4c0,0.2,0,0.3-0.1,0.4
	s-0.2,0.2-0.4,0.2l-1.5,0.2v1.2h6.8v-1.2l-1.5-0.2c-0.2,0-0.3-0.1-0.4-0.2s-0.1-0.3-0.1-0.4V87.7L173.7,87.3z M167.3,106.4
	c0.4-0.1,0.8-0.2,1-0.3V105l-1.2-0.1c-0.2,0-0.3-0.1-0.4-0.2s-0.2-0.3-0.2-0.5v-5.8c0-1.5-0.4-2.6-1.1-3.3c-0.7-0.7-1.8-1.1-3.4-1.1
	c-1.2,0-2.3,0.2-3.2,0.7c-0.9,0.5-1.5,1.1-1.8,2l0.7,0.6c0.5-0.5,1-0.8,1.6-1s1.2-0.3,1.9-0.3c0.8,0,1.5,0.2,1.9,0.6
	s0.6,1.1,0.6,2.1v1.4l-2.3,0.2c-0.6,0-1.1,0.1-1.7,0.3c-0.6,0.1-1.1,0.3-1.5,0.6c-0.4,0.3-0.8,0.6-1.1,1c-0.3,0.4-0.4,0.9-0.4,1.5
	c0,0.9,0.3,1.6,1,2.2c0.6,0.5,1.5,0.8,2.5,0.8c0.7,0,1.4-0.1,2.1-0.4c0.6-0.3,1.2-0.7,1.6-1.1c0.2,0.5,0.4,0.9,0.8,1.1
	s0.8,0.4,1.4,0.4C166.4,106.6,166.8,106.5,167.3,106.4 M160.1,104.5c-0.3-0.3-0.4-0.6-0.4-1.1c0-0.6,0.2-1,0.6-1.4
	c0.4-0.3,1-0.5,1.8-0.6l1.7-0.1v2.8c-0.3,0.3-0.7,0.5-1.2,0.6c-0.4,0.2-0.9,0.2-1.3,0.2C160.7,104.9,160.3,104.8,160.1,104.5
	 M145.2,102.9c0.2,0.8,0.6,1.4,1,2c0.4,0.5,1,1,1.7,1.3s1.5,0.5,2.4,0.5c1.1,0,2.1-0.2,2.9-0.7c0.8-0.5,1.3-1,1.6-1.8l-0.7-0.6
	c-0.3,0.3-0.7,0.6-1.2,0.8c-0.5,0.2-1.1,0.4-1.7,0.4c-1.1,0-1.9-0.4-2.4-1.2s-0.8-2-0.8-3.6s0.2-2.8,0.7-3.5s1.2-1.1,2-1.1
	c0.3,0,0.6,0,0.8,0.1c0.3,0.1,0.5,0.2,0.6,0.3c0.1,0.1,0.2,0.2,0.3,0.4c0.1,0.1,0.1,0.3,0.2,0.5l0.5,1.9h1.4
	c0.1-0.6,0.2-1.2,0.2-1.9c0-0.7,0-1.3,0-1.9c-0.4-0.2-1-0.4-1.7-0.6s-1.4-0.2-2.1-0.2c-0.9,0-1.8,0.2-2.5,0.5s-1.4,0.7-1.9,1.3
	c-0.5,0.6-0.9,1.2-1.2,2s-0.4,1.7-0.4,2.7C144.9,101.4,145,102.2,145.2,102.9 M141,89.5c-0.3-0.3-0.7-0.5-1.3-0.5
	c-0.5,0-1,0.2-1.3,0.5s-0.5,0.7-0.5,1.2s0.2,0.9,0.5,1.2c0.3,0.3,0.7,0.5,1.3,0.5c0.5,0,0.9-0.2,1.3-0.5c0.3-0.3,0.5-0.7,0.5-1.2
	C141.4,90.2,141.3,89.8,141,89.5 M140.9,94c-0.7,0-1.4,0.1-2.2,0.1c-0.8,0.1-1.5,0.2-2.2,0.4v1.2l1.4,0.2c0.2,0,0.3,0.1,0.4,0.2
	c0.1,0.1,0.1,0.3,0.1,0.4v7.6c0,0.2,0,0.3-0.1,0.4s-0.2,0.2-0.4,0.2l-1.3,0.2v1.2h6.4v-1.2l-1.3-0.2c-0.2,0-0.3-0.1-0.4-0.2
	c-0.1-0.1-0.1-0.3-0.1-0.4v-9.9L140.9,94z M134.1,106.4c0.4-0.1,0.8-0.2,1-0.3V105l-1.2-0.1c-0.2,0-0.3-0.1-0.4-0.2
	c-0.1-0.1-0.2-0.3-0.2-0.5V87.6l-0.4-0.4c-0.3,0-0.7,0-1.1,0.1c-0.4,0-0.8,0.1-1.2,0.1c-0.4,0.1-0.8,0.1-1.2,0.2s-0.7,0.2-1.1,0.3
	V89l1.5,0.2c0.2,0,0.3,0.1,0.4,0.2c0.1,0.1,0.1,0.2,0.1,0.4v4.3c-0.3-0.1-0.6-0.1-0.9-0.2c-0.3,0-0.7-0.1-1-0.1
	c-0.9,0-1.8,0.1-2.6,0.4s-1.4,0.7-2,1.2c-0.5,0.6-1,1.2-1.2,2.1c-0.3,0.8-0.4,1.8-0.4,2.9c0,1,0.1,1.9,0.4,2.7
	c0.3,0.8,0.6,1.4,1,1.9s0.9,0.8,1.5,1.1c0.6,0.2,1.2,0.3,1.9,0.3c0.8,0,1.5-0.1,2-0.4c0.6-0.3,1.1-0.7,1.5-1.1
	c0.2,0.5,0.4,0.8,0.8,1.1c0.3,0.3,0.8,0.4,1.4,0.4C133.2,106.6,133.6,106.5,134.1,106.4 M126.1,103.9c-0.5-0.7-0.8-1.9-0.8-3.6
	c0-0.9,0.1-1.7,0.3-2.4c0.2-0.6,0.4-1.1,0.7-1.5s0.6-0.6,1-0.8c0.4-0.2,0.8-0.2,1.3-0.2c0.4,0,0.7,0,1.1,0.1
	c0.3,0.1,0.6,0.2,0.9,0.3v8.3c-0.3,0.2-0.7,0.4-1.1,0.6c-0.4,0.1-0.8,0.2-1.3,0.2C127.3,104.9,126.7,104.6,126.1,103.9 M119.3,103.2
	c-0.3,0.5-0.8,0.9-1.4,1.1c-0.6,0.3-1.2,0.4-1.9,0.4c-1,0-1.9-0.4-2.5-1.1s-0.9-2-0.9-3.8v-0.1v-0.1h7.3c0-0.2,0.1-0.5,0.1-0.8
	s0-0.5,0-0.8c0-1.3-0.4-2.3-1.2-3.1c-0.8-0.7-1.9-1.1-3.4-1.1c-1.8,0-3.2,0.6-4.2,1.7s-1.6,2.7-1.6,4.8c0,0.9,0.1,1.7,0.3,2.5
	s0.6,1.4,1,2c0.4,0.5,1,1,1.7,1.3s1.5,0.5,2.4,0.5c1.2,0,2.3-0.3,3.1-0.8s1.4-1.2,1.7-2.1L119.3,103.2z M116.9,96.1
	c0.4,0.5,0.6,1.1,0.6,1.9c0,0.1,0,0.2,0,0.3c0,0.1,0,0.2,0,0.2h-4.7c0.1-1.1,0.4-1.9,0.8-2.4c0.4-0.5,1-0.7,1.7-0.7
	C116,95.3,116.5,95.6,116.9,96.1 M92.1,104.9c-0.2,0-0.3-0.1-0.4-0.2c-0.1-0.1-0.1-0.2-0.1-0.4v-7.7c0.4-0.3,0.8-0.5,1.3-0.6
	s0.9-0.2,1.3-0.2c0.8,0,1.4,0.3,1.7,0.8s0.4,1.3,0.4,2.5v5.2c0,0.2,0,0.3-0.1,0.4s-0.2,0.2-0.4,0.2l-1,0.2v1.2h5.8v-1.2l-1-0.2
	c-0.2,0-0.3-0.1-0.4-0.2c-0.1-0.1-0.1-0.2-0.1-0.4v-5.7c0-0.4,0-0.7,0-1.1c0-0.3-0.1-0.6-0.1-0.9c0.4-0.3,0.8-0.5,1.3-0.6
	c0.4-0.1,0.9-0.2,1.3-0.2c0.8,0,1.4,0.3,1.8,0.8c0.3,0.5,0.5,1.4,0.5,2.5v5.2c0,0.2,0,0.3-0.1,0.4s-0.2,0.2-0.4,0.2l-1,0.2v1.2h6.1
	v-1.2l-1.3-0.2c-0.2,0-0.3-0.1-0.4-0.2c-0.1-0.1-0.1-0.3-0.1-0.4v-5.6c0-0.8-0.1-1.4-0.2-2c-0.1-0.6-0.3-1.1-0.6-1.5
	s-0.7-0.7-1.1-0.9c-0.5-0.2-1.1-0.3-1.8-0.3s-1.5,0.1-2.2,0.4s-1.4,0.7-2,1.3c-0.3-0.6-0.6-1-1.1-1.3s-1.2-0.4-2-0.4
	c-0.7,0-1.4,0.1-2.1,0.4c-0.7,0.2-1.3,0.7-1.8,1.2l-0.2-1.2L91.2,94c-0.6,0-1.3,0.1-2,0.2s-1.4,0.2-2,0.4v1.2l1.4,0.2
	c0.2,0,0.3,0.1,0.4,0.2c0.1,0.1,0.1,0.3,0.1,0.4v7.6c0,0.2,0,0.3-0.1,0.4s-0.2,0.2-0.4,0.2l-1.3,0.2v1.2h6.1V105L92.1,104.9z"/>
<path class="st1" d="M406.8,79.3V65.4c0-2.6,1.6-4.7,4.4-4.7c2.9,0,4.2,1.9,4.2,4.5v14.1h6.4V65.4c0-2.6,1.6-4.7,4.4-4.7
	c2.9,0,4.2,1.9,4.2,4.5v14.1h6.2V63.9c0-6.4-4.2-9-8.6-9c-3.1,0-5.6,1.1-7.5,4c-1.2-2.6-3.8-4-7-4c-2.6,0-5.6,1.3-6.9,3.6v-2.9h-6.1
	v23.7L406.8,79.3L406.8,79.3z M383.4,54.8c-7.1,0-12.5,5.3-12.5,12.6c0,7.3,5.4,12.6,12.5,12.6s12.4-5.3,12.4-12.6
	C395.8,60,390.4,54.8,383.4,54.8 M383.4,74.1c-3.1,0-6-2.3-6-6.8s2.9-6.8,6-6.8s6,2.3,6,6.8C389.4,71.9,386.5,74.1,383.4,74.1
	 M385,49c0,1.9,1.4,3.4,3.4,3.4c1.9,0,3.4-1.5,3.4-3.4s-1.5-3.4-3.4-3.4C386.4,45.5,385,47.1,385,49 M374.9,49
	c0,1.9,1.5,3.4,3.4,3.4s3.4-1.5,3.4-3.4s-1.5-3.4-3.4-3.4C376.4,45.5,374.9,47.1,374.9,49 M368.9,55.4c-0.5,0-1-0.1-1.5-0.1
	c-2,0-5.3,0.6-6.8,3.7v-3.5h-6.2v23.7h6.4V68.3c0-5.1,2.8-6.7,6.1-6.7c0.6,0,1.2,0,1.9,0.2v-6.4H368.9z M345,48.4h-5.8v3.3
	c0,2.1-1.2,3.8-3.7,3.8h-1.2v5.7h4.3v11c0,4.6,2.9,7.3,7.5,7.3c1.9,0,3-0.3,3.6-0.6v-5.3c-0.3,0.1-1.2,0.2-2,0.2
	c-1.8,0-2.8-0.7-2.8-2.8v-9.9h4.8v-5.7h-4.8v-7H345z M313.3,72.6c0.3,2.7,2.8,7.3,9.9,7.3c6.2,0,9.2-4,9.2-7.8c0-3.5-2.4-6.3-7-7.3
	l-3.4-0.7c-1.3-0.2-2.2-1-2.2-2.1c0-1.4,1.4-2.4,3-2.4c2.7,0,3.7,1.8,3.9,3.2l5.4-1.2c-0.3-2.6-2.6-6.9-9.3-6.9
	c-5.1,0-8.9,3.5-8.9,7.8c0,3.3,2.1,6.1,6.7,7.1l3.1,0.7c1.8,0.4,2.6,1.3,2.6,2.3c0,1.3-1,2.4-3.1,2.4c-2.8,0-4.2-1.7-4.3-3.6
	L313.3,72.6z M308.9,44.9h-6.4v34.3h6.4V44.9z M281.2,65.3c0.1-2.6,1.7-4.6,4.4-4.6c3.1,0,4.4,2.1,4.4,4.7v13.8h6.4v-15
	c0-5.2-2.8-9.4-8.8-9.4c-2.3,0-4.9,0.8-6.4,2.6V44.8h-6.4v34.3h6.4V65.3z M254.4,52.4l4.7,12.9h-9.5L254.4,52.4z M264.2,79.3h7.2
	l-13-34.2h-7.7l-13.1,34.2h7l2.8-7.8h13.9L264.2,79.3z"/>
<path class="st1" d="M213.6,65.6c0-2.8,1.6-4.9,4.4-4.9c3.1,0,4.4,2.1,4.4,4.7v13.8h6.4v-15c0-5.2-2.7-9.4-8.6-9.4
	c-2.6,0-5.4,1.1-6.9,3.6v-2.9h-6.2v23.7h6.4V65.6H213.6z M193.6,47.7c0,2.1,1.8,3.9,4,3.9s4-1.8,4-3.9c0-2.2-1.7-4-4-4
	C195.4,43.7,193.6,45.5,193.6,47.7 M200.8,55.5h-6.4v23.7h6.4V55.5z M184.6,48.4h-5.8v3.3c0,2.1-1.2,3.8-3.7,3.8h-1.2v5.7h4.3v11
	c0,4.6,2.9,7.3,7.5,7.3c1.9,0,3-0.3,3.6-0.6v-5.3c-0.3,0.1-1.2,0.2-2,0.2c-1.8,0-2.8-0.7-2.8-2.8v-9.9h4.8v-5.7h-4.8v-7H184.6z
	 M171.7,55.4c-0.5,0-1-0.1-1.5-0.1c-2,0-5.3,0.6-6.8,3.7v-3.5h-6.2v23.7h6.4V68.3c0-5.1,2.8-6.7,6.1-6.7c0.6,0,1.2,0,1.9,0.2v-6.4
	H171.7z M139.8,75.2c-2.1,0-3.1-1.4-3.1-2.8c0-1.8,1.3-2.8,2.9-3l5.4-0.8v1.1C145,73.9,142.5,75.2,139.8,75.2 M130.3,72.8
	c0,3.7,3.1,7.1,8.2,7.1c3.5,0,5.8-1.6,7-3.5c0,0.9,0.1,2.2,0.2,2.8h5.9c-0.1-0.8-0.3-2.5-0.3-3.8V63.7c0-4.8-2.8-9-10.3-9
	c-6.4,0-9.8,4.1-10.2,7.8l5.7,1.2c0.2-2.1,1.7-3.9,4.5-3.9c2.7,0,4,1.4,4,3.1c0,0.8-0.4,1.5-1.8,1.7l-5.8,0.9
	C133.4,66.2,130.3,68.5,130.3,72.8 M125,79.3V45.1h-9.1l-10,24.7L95.6,45.1h-8.8v34.2h6.4V55.5l9.8,23.8h5.5l9.8-24v24H125z"/>
</svg>
